<svg width="55" height="53" viewBox="0 0 55 53" fill="none" xmlns="http://www.w3.org/2000/svg">
<g clip-path="url(#clip0_6_20)">
<path d="M23.0469 0H16.0156L5.85934 14.8437H12.8906L23.0469 0Z" fill="#BF392C"/>
<path d="M1.95316 0H8.98437L19.1406 14.8437H12.1094L1.95316 0Z" fill="#E2574C"/>
<path d="M12.8907 7.8125C17.6563 7.8125 21.4844 11.6406 21.4844 16.4063C21.4844 21.1719 17.6563 25 12.8907 25C8.12505 25 4.29691 21.1719 4.29691 16.4063C4.29691 11.6406 8.12505 7.8125 12.8907 7.8125Z" fill="#E4E7E7"/>
<path d="M12.8906 10.1562C9.45318 10.1562 6.64062 12.9687 6.64062 16.4063C6.64062 19.8438 9.45309 22.6563 12.8906 22.6563C16.3282 22.6563 19.1407 19.8438 19.1407 16.4063C19.1407 12.9687 16.3281 10.1562 12.8906 10.1562ZM12.8906 21.0937C10.3125 21.0937 8.20317 18.9843 8.20317 16.4063C8.20317 13.8282 10.3126 11.7188 12.8906 11.7188C15.4687 11.7188 17.5781 13.8282 17.5781 16.4063C17.5781 18.9843 15.4687 21.0937 12.8906 21.0937Z" fill="#CDCFCF"/>
</g>
<g clip-path="url(#clip1_6_20)">
<path d="M53.0469 0H46.0156L35.8593 14.8437H42.8906L53.0469 0Z" fill="#BF392C"/>
<path d="M31.9532 0H38.9844L49.1406 14.8437H42.1094L31.9532 0Z" fill="#E2574C"/>
<path d="M42.8907 7.8125C47.6563 7.8125 51.4844 11.6406 51.4844 16.4063C51.4844 21.1719 47.6563 25 42.8907 25C38.1251 25 34.2969 21.1719 34.2969 16.4063C34.2969 11.6406 38.1251 7.8125 42.8907 7.8125Z" fill="#ED9D5D"/>
<path d="M42.8906 10.1562C39.4532 10.1562 36.6406 12.9687 36.6406 16.4063C36.6406 19.8438 39.4531 22.6563 42.8906 22.6563C46.3282 22.6563 49.1407 19.8438 49.1407 16.4063C49.1407 12.9687 46.3281 10.1562 42.8906 10.1562ZM42.8906 21.0937C40.3125 21.0937 38.2032 18.9843 38.2032 16.4063C38.2032 13.8282 40.3126 11.7188 42.8906 11.7188C45.4687 11.7188 47.5781 13.8282 47.5781 16.4063C47.5781 18.9843 45.4687 21.0937 42.8906 21.0937Z" fill="#D58D54"/>
</g>
<g clip-path="url(#clip2_6_20)">
<path d="M38.0469 28H31.0156L20.8593 42.8437H27.8906L38.0469 28Z" fill="#BF392C"/>
<path d="M16.9532 28H23.9844L34.1406 42.8437H27.1094L16.9532 28Z" fill="#E2574C"/>
<path d="M27.8907 35.8125C32.6563 35.8125 36.4844 39.6406 36.4844 44.4063C36.4844 49.1719 32.6563 53 27.8907 53C23.1251 53 19.2969 49.1719 19.2969 44.4063C19.2969 39.6406 23.1251 35.8125 27.8907 35.8125Z" fill="#EFC75E"/>
<path d="M27.8906 38.1562C24.4532 38.1562 21.6406 40.9687 21.6406 44.4063C21.6406 47.8438 24.4531 50.6563 27.8906 50.6563C31.3282 50.6563 34.1407 47.8438 34.1407 44.4063C34.1407 40.9687 31.3281 38.1562 27.8906 38.1562ZM27.8906 49.0937C25.3125 49.0937 23.2032 46.9843 23.2032 44.4063C23.2032 41.8282 25.3126 39.7188 27.8906 39.7188C30.4687 39.7188 32.5781 41.8282 32.5781 44.4063C32.5781 46.9843 30.4687 49.0937 27.8906 49.0937Z" fill="#D7B354"/>
</g>
<defs>
<clipPath id="clip0_6_20">
<rect width="25" height="25" fill="white"/>
</clipPath>
<clipPath id="clip1_6_20">
<rect width="25" height="25" fill="white" transform="translate(30)"/>
</clipPath>
<clipPath id="clip2_6_20">
<rect width="25" height="25" fill="white" transform="translate(15 28)"/>
</clipPath>
</defs>
</svg>
